<?xml version="1.0" standalone="no"?>
<!DOCTYPE svg PUBLIC "-//W3C//DTD SVG 20010904//EN"
 "http://www.w3.org/TR/2001/REC-SVG-20010904/DTD/svg10.dtd">
<svg version="1.0" xmlns="http://www.w3.org/2000/svg"
 width="25" height="23" viewBox="0 0 900.000000 707.000000"
 preserveAspectRatio="xMidYMid meet">

<g transform="translate(0.000000,707.000000) scale(0.100000,-0.100000)"
fill="#000000" stroke="none">
<path d="M4245 6648 c-331 -43 -411 -58 -644 -125 -217 -62 -503 -186 -678
-294 -37 -23 -77 -47 -88 -53 -11 -6 -65 -42 -119 -81 -54 -38 -108 -77 -120
-85 -30 -21 -201 -169 -268 -233 -158 -150 -382 -427 -477 -588 -8 -13 -32
-52 -53 -87 -174 -285 -333 -728 -383 -1070 -61 -418 -61 -605 1 -1007 81
-538 330 -1077 695 -1509 144 -170 377 -392 518 -491 23 -16 54 -39 69 -50
213 -159 603 -350 887 -434 221 -65 329 -86 675 -130 307 -39 791 18 1195 141
255 78 651 276 847 423 15 11 46 34 69 50 54 38 225 185 305 262 359 344 649
812 801 1288 93 295 153 665 153 955 0 194 -36 504 -81 690 -74 310 -191 614
-327 849 -29 51 -199 310 -234 356 -147 195 -423 468 -618 610 -22 17 -53 39
-68 50 -25 20 -196 127 -272 173 -202 119 -524 245 -800 311 -319 77 -741 111
-985 79z m-819 -1634 c31 -16 74 -54 119 -105 39 -45 81 -93 95 -107 14 -15
43 -48 65 -73 22 -25 103 -115 179 -200 77 -85 169 -188 206 -229 194 -216
375 -418 396 -440 l24 -25 583 582 c445 446 593 587 627 602 62 28 115 26 178
-5 64 -32 112 -104 112 -169 0 -102 22 -76 -623 -722 l-600 -602 83 -93 c47
-51 107 -118 135 -148 27 -31 84 -94 125 -140 41 -47 120 -134 175 -195 56
-60 136 -150 179 -199 44 -49 86 -97 95 -106 68 -71 241 -269 262 -301 114
-167 -72 -385 -256 -300 -39 18 -86 64 -231 227 -38 43 -113 126 -165 183 -52
57 -132 148 -179 201 -47 53 -92 103 -100 112 -8 8 -104 115 -214 236 -109
122 -201 222 -205 222 -3 0 -269 -263 -591 -585 -500 -500 -591 -587 -629
-600 -65 -22 -112 -19 -172 13 -96 50 -133 162 -88 262 15 34 158 184 611 637
l591 591 -119 132 c-65 73 -139 156 -164 184 -24 28 -90 101 -145 161 -137
151 -254 281 -301 335 -21 24 -100 112 -175 195 -157 174 -169 191 -180 248
-31 171 143 301 297 221z"/>
</g>
</svg>
